/* XPM */
static char * close_inactive_xpm[] = {
"32 21 22 1",
" 	c None",
".	c #F5F6F7",
"+	c #5D5C59",
"@	c #6D6D6B",
"#	c #484848",
"$	c #DEDEDB",
"%	c #6E6E6C",
"&	c #4C4C4C",
"*	c #A2A09A",
"=	c #6B6B6A",
"-	c #424241",
";	c #A9A7A1",
">	c #242424",
",	c #9A9894",
"'	c #4A4A49",
")	c #727170",
"!	c #9C9B96",
"~	c #4A4A4A",
"{	c #70706E",
"]	c #464645",
"^	c #767573",
"/	c #9A9890",
"................................",
"................................",
"................................",
"................................",
"................................",
"................................",
"................................",
"............+......+............",
"............@#$..$#@............",
".............%&**&%.............",
"..............=--=..............",
"..............;>>;..............",
".............,'))',.............",
"............!~{..{~!............",
"............]^....^]............",
"............/....../............",
"................................",
"................................",
"................................",
"................................",
"................................"};
