/* XPM */
static char * maximize_inactive_xpm[] = {
"32 21 12 1",
" 	c None",
".	c #F5F6F7",
"+	c #7C7B77",
"@	c #6E6D6A",
"#	c #6E6D6B",
"$	c #B8B6AE",
"%	c #232323",
"&	c #3E3E3C",
"*	c #444443",
"=	c #B8B5AE",
"-	c #2A2929",
";	c #A3A19C",
"................................",
"................................",
"................................",
"................................",
"................................",
"................................",
"............+@####@+............",
"...........$%&****&%$...........",
"...........=-;....;-=...........",
"...........=-;....;-=...........",
"...........=-;....;-=...........",
"...........=-;....;-=...........",
"...........=-;....;-=...........",
"...........$%&****&%$...........",
"............+@####@+............",
"................................",
"................................",
"................................",
"................................",
"................................",
"................................"};
