/* XPM */
static char * maximize_toggled_inactive_xpm[] = {
"32 21 37 1",
" 	c None",
".	c #F5F6F7",
"+	c #A4A29C",
"@	c #6F6E6B",
"#	c #6E6D6B",
"$	c #6E6D6A",
"%	c #7C7B77",
"&	c #656462",
"*	c #222222",
"=	c #41413F",
"-	c #3D3D3C",
";	c #232323",
">	c #B8B6AE",
",	c #DEDEDB",
"'	c #373736",
")	c #202020",
"!	c #1C1C1B",
"~	c #2C2C2B",
"{	c #272726",
"]	c #666563",
"^	c #2A2929",
"/	c #B8B5AE",
"(	c #282827",
"_	c #868481",
":	c #9D9B96",
"<	c #9C9B96",
"[	c #3F3F3E",
"}	c #575654",
"|	c #A3A19C",
"1	c #484746",
"2	c #474746",
"3	c #4C4B4A",
"4	c #464544",
"5	c #1D1D1C",
"6	c #3E3E3C",
"7	c #444443",
"8	c #242423",
"................................",
"................................",
"................................",
"................................",
"................................",
"................................",
".............+@###$%............",
".............&*===-;>...........",
"...........,')!~~{]^/...........",
".........../(_::<[}^/...........",
".........../^|...1}^/...........",
".........../^|...23(/...........",
".........../^|...45',...........",
"...........>;67778&.............",
"............%$###@+.............",
"................................",
"................................",
"................................",
"................................",
"................................",
"................................"};
